<?xml version="1.0" standalone="no"?> <!DOCTYPE svg PUBLIC "-//W3C//DTD SVG 20010904//EN" "http://www.w3.org/TR/2001/REC-SVG-20010904/DTD/svg10.dtd"> <svg version="1.0" xmlns="http://www.w3.org/2000/svg" width="1600.000000pt" height="2400.000000pt" viewBox="0 0 1600.000000 2400.000000" preserveAspectRatio="xMidYMid meet"> <g transform="translate(0.000000,2400.000000) scale(0.100000,-0.100000)" fill="#008a02" stroke="none"> <path d="M7425 19202 c-19 -22 -26 -23 -122 -20 -98 2 -104 1 -119 -21 -15 -21 -22 -23 -76 -18 -54 5 -61 3 -83 -20 -21 -24 -28 -25 -79 -20 -52 5 -59 3 -80 -20 -20 -22 -30 -25 -60 -20 -30 5 -40 2 -60 -20 -20 -22 -30 -25 -60 -20 -30 5 -40 2 -60 -20 -20 -22 -30 -25 -60 -20 -30 5 -40 2 -60 -20 -15 -16 -30 -24 -40 -20 -10 4 -25 -4 -40 -20 -20 -22 -30 -25 -60 -20 -30 5 -40 2 -60 -20 -15 -16 -30 -24 -40 -20 -10 4 -25 -4 -40 -20 -15 -16 -30 -24 -40 -20 -10 4 -25 -4 -40 -20 -15 -16 -30 -24 -40 -20 -10 4 -25 -4 -40 -20 -15 -16 -30 -24 -40 -20 -10 4 -31 -10 -60 -40 -29 -29 -50 -44 -60 -40 -10 4 -31 -10 -60 -40 -29 -30 -50 -44 -60 -40 -10 4 -25 -4 -40 -20 -15 -16 -30 -24 -40 -20 -10 4 -31 -10 -60 -40 -29 -30 -50 -44 -60 -40 -17 7 -76 -48 -76 -70 0 -7 -6 -13 -13 -13 -8 0 -41 -27 -73 -60 -39 -40 -65 -59 -76 -56 -19 4 -518 -486 -518 -508 0 -6 -10 -16 -22 -21 -15 -7 -22 -17 -20 -31 2 -14 -11 -33 -38 -57 -25 -23 -40 -46 -40 -60 0 -15 -22 -44 -65 -85 -43 -42 -62 -67 -58 -78 4 -10 -10 -31 -40 -60 -30 -29 -44 -50 -40 -60 4 -10 -10 -31 -40 -59 -32 -32 -44 -50 -40 -64 3 -13 -2 -24 -16 -33 -13 -8 -21 -23 -21 -40 0 -17 -8 -33 -20 -40 -12 -8 -20 -24 -20 -40 0 -17 -8 -33 -20 -40 -12 -8 -20 -24 -20 -40 0 -17 -8 -33 -20 -40 -12 -8 -20 -24 -20 -40 0 -17 -8 -33 -20 -40 -12 -8 -20 -24 -20 -40 0 -17 -8 -33 -20 -40 -12 -8 -20 -24 -20 -40 0 -17 -8 -33 -20 -40 -15 -10 -20 -24 -20 -60 0 -37 -5 -51 -20 -60 -12 -8 -20 -24 -20 -39 0 -14 -10 -34 -24 -46 -20 -18 -23 -28 -19 -61 5 -34 2 -43 -16 -54 -16 -9 -21 -23 -21 -53 0 -49 -18 -115 -30 -115 -6 0 -10 -19 -10 -42 0 -52 -17 -118 -30 -118 -6 0 -10 -31 -10 -70 0 -59 -3 -72 -20 -82 -18 -12 -20 -24 -20 -120 0 -94 -2 -108 -19 -120 -18 -13 -22 -36 -22 -131 0 -11 8 -25 17 -32 17 -12 17 -14 1 -38 -15 -23 -17 -84 -17 -628 -1 -615 0 -640 35 -593 10 14 17 16 25 8 8 -8 7 -15 -4 -27 -27 -26 -23 -188 5 -205 18 -12 20 -22 19 -90 -3 -102 -3 -100 20 -107 17 -5 20 -15 20 -61 0 -30 4 -54 10 -54 12 0 30 -66 30 -115 0 -30 5 -44 21 -53 18 -11 21 -20 16 -54 -4 -33 -1 -43 19 -61 13 -11 24 -31 24 -45 0 -13 6 -30 14 -38 8 -8 18 -36 22 -62 4 -28 14 -52 25 -60 11 -8 19 -25 19 -42 0 -20 6 -31 21 -35 19 -6 21 -13 16 -52 -4 -39 -1 -48 19 -66 14 -12 24 -32 24 -46 0 -15 8 -31 20 -39 12 -7 20 -23 20 -40 0 -16 8 -32 20 -40 12 -7 20 -23 20 -40 0 -17 8 -32 21 -40 14 -9 19 -20 16 -33 -4 -14 8 -32 40 -64 30 -28 44 -49 40 -59 -4 -10 9 -31 38 -58 30 -29 45 -51 45 -68 0 -14 9 -31 20 -38 11 -7 20 -23 20 -37 0 -17 14 -37 40 -61 25 -23 40 -45 40 -60 0 -15 15 -37 41 -61 27 -25 39 -43 36 -55 -4 -12 9 -33 40 -63 30 -29 44 -49 40 -59 -5 -11 15 -37 60 -81 43 -42 64 -69 60 -79 -4 -10 10 -32 40 -60 29 -29 44 -50 40 -60 -4 -10 10 -31 40 -60 30 -29 44 -50 40 -60 -4 -10 4 -25 20 -40 16 -15 24 -30 20 -40 -4 -10 9 -30 38 -58 30 -29 45 -51 45 -68 0 -14 9 -31 20 -38 12 -7 20 -23 20 -40 0 -16 8 -32 20 -40 12 -7 20 -23 20 -40 0 -16 8 -32 20 -40 12 -7 20 -23 20 -40 0 -16 8 -32 20 -40 13 -8 20 -23 20 -42 0 -17 4 -30 10 -30 9 0 32 -69 29 -87 -4 -21 3 -32 21 -38 14 -4 20 -15 20 -36 0 -17 6 -37 14 -45 8 -8 18 -36 22 -62 4 -28 14 -52 25 -60 14 -10 19 -26 19 -60 0 -36 5 -50 20 -60 15 -9 20 -23 20 -60 0 -36 5 -50 20 -60 15 -9 20 -23 20 -60 0 -36 5 -50 20 -60 15 -9 20 -23 20 -60 0 -36 5 -50 20 -60 17 -10 20 -23 20 -80 0 -56 3 -69 20 -80 17 -10 20 -23 20 -80 0 -56 3 -69 20 -80 17 -10 20 -23 20 -80 0 -56 3 -69 20 -80 17 -10 20 -23 20 -80 0 -56 3 -69 20 -80 18 -11 20 -23 20 -102 0 -50 4 -90 9 -90 19 0 31 -67 31 -169 0 -95 2 -107 20 -119 18 -11 20 -23 20 -122 0 -61 4 -110 9 -110 14 0 31 -59 31 -109 0 -36 5 -49 21 -59 18 -11 21 -20 16 -53 -4 -34 -1 -44 20 -64 16 -14 23 -29 20 -39 -4 -10 4 -23 23 -36 23 -17 29 -27 24 -45 -5 -18 3 -32 37 -63 28 -27 40 -45 36 -56 -5 -12 18 -41 78 -99 l85 -83 -24 -22 c-21 -17 -24 -27 -19 -57 5 -34 2 -40 -37 -78 l-43 -40 2 -106 c2 -91 5 -107 22 -119 11 -7 19 -25 19 -40 0 -16 8 -32 20 -40 12 -7 20 -23 20 -40 0 -17 8 -32 21 -40 14 -9 19 -20 16 -33 -4 -14 12 -36 59 -82 58 -58 64 -67 64 -105 0 -22 5 -44 10 -47 16 -10 12 -42 -6 -49 -27 -10 -10 -305 18 -324 12 -9 18 -22 15 -33 -4 -14 32 -56 139 -163 141 -141 144 -145 144 -188 0 -32 5 -46 20 -56 17 -10 20 -23 20 -80 0 -57 3 -69 21 -80 14 -9 19 -20 16 -33 -4 -14 8 -32 40 -64 29 -27 44 -49 40 -59 -8 -21 180 -208 203 -201 10 3 25 -5 38 -20 19 -22 28 -24 61 -19 32 5 41 3 54 -16 l15 -21 667 0 667 0 15 22 c13 18 22 20 54 15 33 -5 42 -3 61 19 13 15 28 23 39 20 23 -8 169 138 162 163 -3 12 9 31 36 55 27 24 41 45 41 62 0 14 9 30 20 37 12 8 20 24 20 40 0 17 8 33 20 40 16 10 20 24 20 65 0 29 4 53 9 53 24 0 40 31 34 65 -6 34 -2 39 120 161 93 93 124 129 120 144 -3 12 3 23 16 32 13 8 21 23 21 40 0 16 9 33 22 42 24 17 27 56 7 111 -11 28 -11 40 -1 55 8 13 12 62 12 137 l0 117 64 63 c47 46 63 68 59 82 -3 13 2 24 16 33 13 8 21 23 21 40 0 17 8 33 20 40 19 12 20 24 20 183 0 159 -1 171 -20 183 -17 10 -20 23 -20 75 0 71 41 127 94 127 22 0 26 4 26 29 0 21 11 37 40 62 44 38 48 46 23 64 -21 16 -11 31 27 38 25 6 30 11 30 37 0 19 7 34 20 42 12 8 20 24 20 40 0 17 8 33 20 40 12 8 20 24 20 40 0 17 8 33 20 40 15 10 20 24 20 60 0 37 5 51 20 60 17 11 20 24 20 99 0 85 13 149 31 149 5 0 9 40 9 89 0 86 13 151 31 151 5 0 9 40 9 89 0 86 13 151 31 151 5 0 9 31 9 69 0 69 15 131 31 131 5 0 9 21 10 48 0 69 15 146 28 150 6 2 11 25 11 51 0 52 17 111 31 111 5 0 9 22 9 50 0 39 4 53 20 62 15 10 20 24 20 59 0 50 17 109 31 109 5 0 9 13 9 29 0 35 19 91 31 91 5 0 9 23 9 50 0 38 5 54 20 67 11 10 20 27 20 40 0 12 9 28 21 36 22 16 26 37 16 78 -5 20 0 36 18 63 14 20 25 48 25 61 0 14 9 30 20 37 12 8 20 24 20 40 0 17 8 33 20 40 12 8 20 24 20 40 0 17 8 33 20 40 12 8 20 24 20 40 0 15 8 33 19 40 11 8 21 32 25 60 4 26 16 58 27 71 10 14 19 33 19 42 0 9 16 33 35 52 20 20 35 45 35 58 0 14 16 37 40 59 24 22 40 45 40 58 0 14 18 40 45 66 29 27 42 48 38 58 -4 10 10 31 40 60 30 29 44 50 40 60 -4 11 16 37 60 80 45 43 64 69 60 80 -4 10 16 36 60 79 47 47 64 70 60 84 -3 13 2 23 16 30 21 12 29 41 11 41 -5 0 -10 9 -10 20 0 24 16 26 28 3 14 -25 44 -9 37 20 -4 16 1 29 19 45 15 12 26 31 26 43 0 12 16 37 35 56 20 20 35 45 35 59 0 13 9 29 20 36 12 8 20 24 20 40 0 17 8 33 20 40 12 8 20 24 20 40 0 17 8 33 20 40 11 7 20 24 20 38 0 17 15 39 44 67 32 30 43 48 39 62 -3 13 2 24 16 33 13 8 21 23 21 40 0 15 8 33 19 40 11 8 21 32 25 60 4 26 14 54 22 62 8 8 14 26 14 40 0 14 8 31 19 38 11 8 21 32 25 60 4 26 14 54 22 62 8 8 14 25 14 39 0 32 20 87 31 87 5 0 9 22 9 50 0 39 4 53 20 62 15 10 20 24 20 60 0 34 5 50 19 60 14 10 20 32 26 101 4 53 12 93 21 101 9 10 14 38 14 83 0 41 6 78 15 93 27 47 28 51 9 64 -17 13 -17 15 2 42 18 28 19 53 19 787 0 574 -3 760 -12 765 -21 13 -33 62 -33 133 0 38 -4 69 -9 69 -15 0 -31 59 -31 111 0 27 -4 49 -9 49 -14 0 -31 59 -31 109 0 35 -5 49 -20 59 -15 9 -20 23 -20 60 0 36 -5 50 -20 60 -15 9 -20 23 -20 60 0 36 -5 50 -20 60 -15 9 -20 23 -20 60 0 36 -5 50 -20 60 -12 7 -20 23 -20 40 0 16 -8 32 -20 40 -12 7 -20 23 -20 38 0 14 -6 32 -14 40 -8 8 -18 36 -22 62 -4 28 -14 52 -25 60 -11 8 -19 25 -19 43 0 25 -5 30 -30 36 -28 5 -46 43 -20 43 18 0 11 29 -10 40 -12 7 -20 21 -20 38 0 17 -8 32 -21 40 -14 9 -19 20 -16 33 4 14 -7 32 -39 62 -29 28 -44 50 -44 67 0 14 -9 31 -20 38 -11 7 -20 23 -20 37 0 17 -14 38 -41 62 -27 25 -39 42 -36 55 4 13 -14 37 -59 81 -44 42 -64 68 -60 80 3 11 -17 38 -61 82 -42 41 -63 69 -60 79 8 20 -498 527 -519 519 -9 -3 -38 18 -76 56 -34 33 -66 61 -72 61 -6 0 -16 10 -21 23 -6 14 -17 21 -29 19 -11 -2 -35 14 -62 42 -29 29 -50 43 -60 39 -10 -4 -31 11 -60 40 -29 30 -50 44 -60 40 -10 -4 -31 11 -60 40 -29 30 -50 44 -60 40 -10 -3 -25 4 -40 20 -15 16 -30 24 -43 20 -13 -3 -24 2 -33 16 -7 12 -23 21 -38 21 -17 0 -39 15 -68 45 -28 29 -48 42 -58 38 -10 -4 -25 4 -40 20 -20 22 -30 25 -60 20 -30 -5 -40 -2 -61 21 -15 17 -31 25 -42 21 -11 -3 -25 4 -39 20 -14 15 -27 22 -38 18 -10 -4 -25 4 -40 20 -20 22 -30 25 -60 20 -30 -5 -40 -2 -60 20 -20 22 -30 25 -60 20 -30 -5 -40 -2 -60 20 -20 22 -30 25 -60 20 -30 -5 -40 -2 -60 20 -21 23 -28 25 -80 20 -50 -5 -58 -4 -79 19 -21 23 -28 25 -103 20 -74 -4 -80 -3 -96 19 -15 23 -21 23 -120 21 -97 -3 -105 -2 -119 18 -15 21 -15 21 -538 23 l-523 2 -21 -23z m915 -273 c36 -5 109 -14 163 -19 54 -5 102 -12 107 -15 5 -3 55 -12 111 -21 57 -8 108 -19 114 -24 6 -5 42 -14 80 -20 39 -6 81 -16 95 -22 14 -6 50 -16 80 -23 30 -7 80 -23 110 -35 30 -12 70 -26 89 -32 19 -5 51 -19 70 -29 20 -10 44 -19 54 -19 9 0 57 -18 105 -41 48 -23 112 -52 142 -66 30 -14 62 -29 70 -34 8 -4 36 -20 63 -33 74 -39 141 -79 155 -93 7 -7 17 -13 22 -13 5 0 35 -17 67 -39 101 -67 177 -116 188 -121 102 -47 576 -484 722 -665 17 -22 60 -75 95 -117 77 -94 141 -178 148 -192 3 -6 19 -31 35 -55 17 -24 34 -51 40 -60 5 -9 24 -39 42 -68 34 -53 96 -165 120 -218 8 -16 18 -37 23 -45 5 -8 20 -37 33 -65 78 -158 107 -223 107 -236 0 -8 6 -23 14 -34 7 -11 17 -36 21 -55 4 -19 15 -48 25 -65 10 -16 21 -48 25 -70 4 -22 11 -45 15 -50 9 -11 47 -136 60 -200 12 -62 39 -175 55 -230 8 -27 16 -68 19 -90 3 -22 10 -60 16 -85 6 -25 17 -99 24 -165 7 -66 20 -133 27 -150 22 -49 20 -955 -2 -1010 -9 -22 -20 -76 -23 -120 -4 -44 -11 -93 -17 -110 -5 -16 -15 -70 -24 -120 -8 -49 -24 -126 -35 -170 -12 -44 -26 -98 -32 -120 -5 -22 -16 -53 -23 -70 -7 -16 -16 -48 -20 -70 -4 -22 -15 -54 -26 -71 -10 -17 -19 -44 -19 -60 0 -16 -9 -43 -19 -60 -10 -17 -22 -46 -26 -65 -7 -30 -141 -322 -165 -359 -6 -8 -19 -34 -29 -56 -11 -23 -24 -45 -30 -48 -6 -4 -11 -14 -11 -22 0 -21 -117 -223 -141 -244 -3 -3 -20 -30 -38 -60 -34 -58 -63 -98 -206 -287 -122 -160 -215 -290 -215 -299 0 -3 -14 -22 -31 -43 -39 -49 -98 -146 -144 -237 -19 -40 -42 -77 -50 -84 -8 -7 -15 -20 -15 -30 0 -9 -8 -28 -18 -41 -25 -32 -164 -323 -177 -369 -4 -14 -16 -39 -26 -56 -11 -17 -19 -42 -19 -55 0 -13 -9 -39 -20 -57 -11 -18 -20 -38 -20 -44 0 -6 -9 -29 -19 -52 -21 -45 -46 -118 -62 -181 -6 -22 -15 -49 -20 -60 -10 -21 -42 -129 -60 -200 -6 -21 -14 -44 -18 -50 -5 -5 -12 -32 -16 -60 -4 -27 -15 -70 -25 -95 -10 -25 -21 -71 -24 -104 -4 -32 -11 -67 -17 -79 -6 -11 -15 -54 -21 -95 -5 -41 -15 -86 -22 -101 -7 -14 -17 -51 -20 -82 -4 -31 -13 -77 -21 -103 -8 -26 -17 -81 -21 -124 -3 -42 -12 -95 -19 -117 -7 -22 -18 -87 -25 -145 -6 -58 -14 -116 -16 -130 -3 -14 -9 -45 -13 -70 -4 -25 -11 -51 -15 -59 -5 -7 -12 -49 -17 -92 -4 -43 -15 -91 -23 -106 -8 -16 -22 -44 -30 -63 -16 -36 -20 -43 -71 -120 -101 -154 -301 -257 -454 -234 -25 4 -613 8 -1306 8 l-1260 1 -69 33 c-122 59 -172 106 -259 242 -20 31 -34 61 -84 179 -7 18 -16 70 -19 115 -3 44 -14 121 -25 170 -11 48 -22 123 -25 165 -3 42 -11 99 -18 126 -8 28 -19 88 -26 135 -7 47 -19 112 -26 145 -7 33 -22 103 -33 155 -12 52 -25 105 -31 118 -5 13 -10 34 -10 47 0 13 -11 59 -25 102 -14 43 -25 90 -25 104 0 15 -9 46 -20 70 -11 24 -20 59 -20 78 0 18 -8 48 -19 65 -10 17 -21 53 -25 80 -3 27 -10 54 -16 61 -8 9 -49 123 -95 260 -7 22 -29 75 -49 119 -20 43 -36 86 -36 96 0 10 -7 23 -15 30 -8 7 -17 28 -21 49 -4 20 -15 52 -25 71 -51 98 -99 204 -99 220 0 10 -7 23 -15 30 -8 6 -17 22 -21 33 -4 12 -31 64 -60 115 -30 51 -61 107 -69 125 -8 18 -20 41 -27 52 -7 11 -22 36 -34 55 -42 68 -115 176 -158 235 -25 33 -57 78 -73 100 -28 40 -89 123 -118 160 -38 49 -133 187 -190 280 -16 26 -41 64 -54 84 -50 75 -141 240 -141 255 0 8 -5 18 -10 21 -10 6 -39 65 -124 247 -14 31 -26 62 -26 68 0 7 -7 24 -15 38 -26 49 -65 151 -65 173 0 13 -7 30 -16 40 -8 9 -19 41 -23 71 -4 29 -15 65 -24 79 -10 15 -22 49 -27 75 -5 27 -17 81 -28 119 -11 39 -25 104 -32 145 -6 41 -18 98 -25 125 -8 28 -19 104 -25 170 -6 66 -17 140 -23 165 -17 66 -16 881 1 975 7 39 19 111 26 160 7 50 18 103 24 118 7 16 12 43 12 60 1 39 22 142 44 217 10 30 22 80 27 110 5 30 19 68 29 86 11 17 20 45 20 62 0 17 9 51 19 74 10 24 38 93 60 153 23 61 51 128 61 150 10 22 31 65 45 95 14 30 32 66 40 80 8 14 26 50 41 80 37 76 74 143 105 187 61 90 109 164 109 170 0 3 15 24 33 47 19 23 40 53 48 67 13 25 56 82 90 118 8 10 22 26 30 38 52 75 443 483 463 483 6 0 25 14 41 31 17 17 77 68 134 113 138 108 162 126 189 137 12 4 22 13 22 18 0 5 9 13 21 16 11 4 41 21 66 38 25 18 50 35 57 39 87 52 151 88 196 111 30 15 80 41 109 57 30 17 64 33 75 36 12 4 53 22 91 40 85 40 118 52 310 116 83 27 164 54 180 60 17 6 63 17 103 24 40 7 81 18 92 24 11 6 59 17 107 25 49 8 108 19 133 24 186 42 771 60 970 30z m1060 -10870 c14 -11 35 -24 48 -31 12 -6 22 -16 22 -22 0 -6 9 -28 20 -49 33 -61 27 -150 -14 -207 -65 -90 87 -82 -1495 -82 -897 0 -1406 4 -1418 10 -27 15 -49 42 -78 95 -56 106 -14 238 93 296 13 7 436 10 1337 11 725 0 1320 2 1322 4 12 12 141 -8 163 -25z m-204 -691 c143 -109 148 -269 11 -382 l-44 -36 -1159 0 c-1336 0 -1227 -8 -1298 94 -73 102 -50 235 52 313 l44 33 1182 0 1182 0 30 -22z m-314 -659 c27 -14 58 -83 58 -126 -1 -126 -103 -250 -242 -293 -91 -28 -1361 -35 -1413 -8 -16 8 -42 18 -56 21 -14 4 -55 34 -91 67 -112 102 -135 227 -57 315 l27 29 768 -1 c423 -1 803 2 844 6 79 9 133 6 162 -10z"/> <path d="M7748 18604 c-4 -4 -63 -12 -130 -20 -172 -18 -377 -51 -391 -62 -7 -5 -40 -13 -73 -17 -34 -4 -73 -12 -86 -20 -14 -7 -49 -18 -79 -25 -30 -7 -66 -19 -81 -26 -15 -8 -35 -14 -45 -14 -10 -1 -36 -9 -58 -20 -22 -11 -46 -19 -52 -20 -7 0 -32 -9 -55 -19 -24 -11 -88 -38 -142 -61 -55 -23 -131 -59 -170 -80 -171 -91 -181 -96 -289 -169 -37 -25 -82 -55 -100 -65 -32 -19 -257 -195 -288 -225 -422 -406 -640 -693 -858 -1128 -33 -68 -61 -129 -61 -136 0 -8 -8 -22 -19 -31 -10 -9 -21 -37 -25 -62 -3 -25 -13 -52 -21 -60 -8 -9 -15 -24 -15 -35 0 -11 -6 -32 -14 -47 -27 -52 -94 -272 -115 -377 -7 -33 -16 -76 -21 -95 -5 -19 -11 -46 -14 -60 -2 -14 -11 -43 -20 -65 -10 -26 -15 -75 -16 -143 0 -75 -6 -123 -21 -172 -28 -92 -25 -805 4 -900 10 -33 17 -92 18 -150 1 -70 6 -107 20 -139 10 -24 19 -52 19 -62 0 -10 4 -38 10 -61 35 -159 75 -311 89 -343 19 -45 51 -132 57 -160 4 -16 16 -43 26 -60 10 -16 18 -40 18 -51 0 -12 6 -27 14 -33 8 -7 17 -24 21 -39 9 -38 216 -452 226 -452 4 0 13 -16 19 -35 6 -19 16 -35 21 -35 5 0 13 -8 17 -17 13 -33 93 -162 108 -174 8 -6 14 -16 14 -22 0 -5 16 -29 35 -52 19 -23 40 -54 46 -69 7 -14 16 -26 20 -26 4 0 19 -21 34 -46 15 -26 42 -63 59 -83 18 -20 45 -58 61 -86 16 -27 46 -72 67 -98 21 -27 38 -54 38 -61 0 -7 9 -21 20 -31 11 -10 20 -24 20 -30 0 -7 8 -23 19 -36 24 -31 98 -163 174 -309 32 -63 65 -126 72 -140 42 -79 95 -197 95 -210 0 -9 6 -24 14 -35 22 -33 95 -204 102 -240 3 -19 12 -39 19 -45 8 -6 17 -26 20 -43 4 -18 15 -54 25 -82 49 -137 91 -258 105 -305 114 -386 115 -388 115 -425 0 -17 7 -40 15 -52 8 -12 19 -60 24 -107 5 -47 14 -92 20 -100 6 -7 16 -51 22 -97 6 -46 15 -97 21 -114 6 -16 13 -52 17 -80 4 -27 10 -56 14 -63 5 -7 10 -31 12 -55 9 -97 17 -165 27 -207 5 -25 18 -106 28 -180 35 -253 81 -334 217 -379 142 -48 208 -16 169 80 -7 19 -21 113 -31 209 -9 96 -21 200 -26 230 -12 73 -12 426 1 468 5 19 14 118 20 220 8 128 16 194 26 209 8 12 14 39 14 60 1 21 7 56 15 78 8 22 15 51 15 65 0 14 7 50 15 80 9 30 22 82 30 115 7 33 21 74 29 90 9 17 16 41 16 55 0 14 9 39 20 55 11 17 20 41 20 55 0 14 9 43 20 65 11 22 19 47 20 55 0 8 9 32 20 53 11 20 20 41 20 46 0 19 213 461 285 591 29 52 71 129 93 171 52 98 64 121 78 139 7 8 32 53 56 100 25 47 59 111 77 142 32 56 32 58 21 120 -15 85 -48 238 -70 323 -10 39 -21 90 -24 115 -8 66 -51 159 -80 169 -13 5 -57 14 -97 20 -156 22 -348 65 -407 92 -23 10 -50 19 -60 19 -9 0 -34 9 -55 20 -20 11 -42 20 -48 20 -30 0 -241 115 -306 167 -23 18 -44 33 -48 33 -13 0 -171 134 -234 199 -108 112 -180 206 -275 361 -58 95 -146 269 -146 290 0 9 -6 25 -14 36 -8 11 -21 45 -29 74 -9 30 -24 80 -35 110 -25 72 -42 143 -42 178 0 15 -7 39 -14 54 -28 54 -62 661 -39 696 17 28 85 24 162 -9 24 -10 61 -19 82 -19 21 0 48 -4 61 -9 13 -5 43 -14 68 -21 129 -36 213 -63 338 -111 90 -35 322 -147 370 -180 23 -16 47 -29 51 -29 9 0 159 -98 179 -117 7 -7 34 -29 60 -50 109 -86 276 -256 329 -333 13 -19 42 -60 64 -90 22 -30 49 -73 59 -95 11 -22 40 -78 64 -124 25 -47 47 -101 51 -120 4 -20 13 -44 22 -53 8 -9 17 -36 20 -60 3 -24 12 -55 20 -71 7 -15 20 -69 28 -120 8 -50 19 -117 25 -147 14 -79 14 -423 -1 -495 -11 -56 -10 -65 14 -137 29 -82 56 -192 61 -248 18 -190 54 -198 130 -30 90 198 153 330 176 370 112 196 122 265 60 397 -107 226 -123 266 -160 388 -9 33 -24 76 -32 95 -8 19 -23 82 -32 140 -9 58 -22 123 -28 145 -19 67 -22 471 -3 517 8 21 15 57 15 81 1 91 69 326 141 483 11 23 19 46 19 51 0 6 8 21 19 34 10 13 22 35 26 49 4 13 16 36 25 50 10 14 39 57 64 95 124 190 310 414 389 470 11 8 43 36 71 62 57 55 180 155 242 199 23 16 72 51 110 77 37 27 77 53 88 58 12 5 50 28 86 50 87 56 335 189 352 189 4 0 45 18 92 40 47 22 91 40 98 40 7 0 28 9 46 20 18 11 37 20 43 20 5 0 31 10 57 22 118 54 152 40 166 -71 4 -30 12 -63 17 -73 5 -10 14 -53 19 -96 5 -42 16 -90 24 -107 9 -16 16 -55 16 -85 1 -30 7 -82 15 -115 42 -171 46 -1040 6 -1160 -5 -16 -15 -66 -22 -110 -6 -44 -15 -88 -20 -97 -5 -10 -16 -48 -23 -85 -17 -84 -88 -288 -127 -367 -16 -33 -29 -67 -29 -77 0 -10 -5 -21 -11 -25 -6 -3 -19 -25 -30 -48 -11 -22 -30 -59 -44 -81 -13 -22 -28 -49 -33 -61 -70 -150 -372 -482 -546 -599 -99 -67 -207 -135 -215 -135 -5 0 -44 -18 -87 -40 -43 -22 -85 -40 -92 -40 -6 0 -29 -9 -49 -20 -21 -11 -45 -20 -54 -20 -9 0 -44 -9 -77 -19 -34 -11 -98 -24 -144 -29 -140 -17 -176 -45 -213 -172 -4 -14 -16 -41 -26 -60 -11 -19 -19 -38 -19 -43 0 -4 -9 -29 -21 -55 -64 -145 -61 -137 -214 -457 -37 -77 -92 -192 -122 -255 -30 -63 -59 -122 -64 -130 -5 -8 -12 -23 -15 -32 -3 -9 -19 -41 -35 -70 -16 -29 -43 -82 -60 -118 -16 -36 -50 -103 -73 -150 -24 -47 -51 -98 -59 -115 -8 -16 -20 -41 -26 -55 -6 -14 -15 -32 -19 -40 -25 -43 -92 -189 -92 -199 0 -7 -9 -29 -20 -49 -35 -67 -96 -216 -105 -257 -4 -16 -12 -36 -18 -44 -7 -8 -17 -35 -24 -60 -7 -25 -34 -113 -62 -196 -56 -170 -67 -211 -87 -313 -7 -40 -18 -80 -23 -90 -8 -15 -14 -77 -26 -247 -2 -33 -9 -74 -16 -90 -16 -42 -24 -546 -10 -645 6 -41 18 -136 25 -210 8 -74 19 -148 25 -165 6 -16 13 -46 16 -66 11 -74 -47 -70 811 -69 881 0 796 -11 788 104 -13 193 -23 216 -109 240 -188 53 -397 232 -329 283 32 24 215 -12 290 -58 59 -36 78 -27 71 32 -4 28 -15 65 -25 82 -11 18 -23 42 -26 54 -10 33 -185 331 -216 368 -25 30 -54 35 -106 18 -34 -10 -96 -15 -204 -16 l-155 -2 -74 39 c-116 60 -281 207 -281 251 0 3 -8 18 -18 33 -88 128 -94 161 -32 173 49 11 234 -8 305 -31 33 -10 77 -22 97 -26 21 -3 42 -12 49 -20 6 -8 16 -14 23 -14 6 0 34 -12 63 -26 107 -55 110 -10 6 94 -93 92 -132 146 -185 252 -27 54 -36 442 -10 472 7 9 15 40 19 69 14 127 49 120 279 -55 150 -115 251 -327 238 -500 -3 -50 -10 -95 -14 -101 -5 -5 -11 -27 -15 -48 -4 -20 -11 -40 -16 -43 -5 -3 -9 -19 -9 -35 0 -16 -11 -51 -23 -77 -71 -141 -67 -184 23 -266 57 -51 65 -41 74 88 12 193 70 335 187 460 72 77 240 199 267 194 63 -12 30 -447 -41 -548 -9 -13 -17 -30 -17 -37 0 -19 -133 -146 -171 -164 -197 -92 -194 -83 -79 -231 24 -31 90 -162 90 -179 0 -6 7 -23 15 -37 8 -15 19 -39 25 -54 15 -44 27 -34 71 56 49 101 144 202 234 248 76 38 88 33 82 -35 -27 -264 -108 -390 -279 -431 -37 -9 -52 -38 -39 -79 5 -18 12 -54 15 -82 4 -27 13 -68 21 -90 9 -27 14 -83 15 -171 0 -158 -2 -154 110 -154 308 1 375 71 420 435 12 99 28 207 35 240 8 33 17 94 21 135 3 41 14 100 24 130 10 30 21 84 25 120 3 36 13 85 20 110 8 25 19 74 24 110 11 75 78 340 91 355 4 5 11 30 15 55 8 53 41 172 60 215 8 17 16 46 19 65 3 20 14 51 24 70 11 19 22 54 26 78 3 24 13 53 20 65 8 12 17 38 21 57 4 19 11 40 16 45 4 6 21 47 37 90 17 44 37 94 45 110 13 26 71 154 106 235 6 14 15 32 20 40 5 8 14 26 20 40 6 14 15 32 20 40 5 8 21 40 36 70 48 97 110 209 123 222 6 6 12 15 12 19 0 4 19 36 43 72 23 35 54 84 69 108 25 39 125 187 145 214 51 67 63 85 63 91 0 5 9 17 20 29 32 31 180 238 180 251 0 6 9 22 21 35 11 13 33 44 47 69 14 25 30 51 36 59 14 17 68 115 136 246 29 55 58 111 66 125 7 14 14 32 14 40 0 8 9 29 20 45 11 17 20 39 20 49 0 11 6 27 14 35 8 9 23 41 34 71 11 30 36 100 55 155 36 99 55 162 83 280 8 33 21 80 28 105 8 25 20 86 26 135 6 50 16 101 22 115 5 14 16 115 24 225 8 110 19 247 24 305 10 113 6 303 -9 372 -5 24 -12 115 -16 203 -4 88 -13 178 -20 200 -8 22 -18 79 -24 127 -6 49 -15 97 -21 108 -6 11 -20 61 -31 112 -11 51 -24 109 -28 128 -9 40 -87 272 -100 298 -16 33 -53 127 -61 157 -4 17 -33 79 -64 139 -31 60 -56 115 -56 121 0 6 -16 35 -36 65 -20 30 -41 64 -46 75 -5 11 -19 36 -31 55 -12 20 -35 58 -52 84 -16 27 -40 61 -52 76 -13 15 -23 33 -23 39 0 52 -470 568 -630 692 -30 23 -76 61 -101 84 -45 42 -106 86 -158 114 -14 8 -53 34 -86 57 -33 24 -100 66 -150 94 -49 28 -97 55 -105 60 -71 44 -361 176 -420 191 -19 5 -71 23 -115 40 -44 17 -98 35 -120 39 -22 5 -56 15 -75 23 -19 8 -59 18 -89 21 -30 4 -70 14 -89 21 -18 8 -70 18 -115 21 -45 4 -91 11 -101 17 -55 28 -735 65 -758 41z m680 -358 c18 -22 26 -23 99 -20 74 3 82 2 100 -20 19 -22 27 -23 100 -20 75 3 81 2 101 -21 19 -21 28 -24 60 -19 31 5 40 2 60 -20 19 -22 28 -25 60 -20 31 5 40 2 60 -20 19 -22 28 -25 60 -20 32 5 40 2 60 -21 16 -18 29 -24 42 -20 13 4 22 -1 30 -15 14 -26 34 -26 51 0 22 32 79 10 79 -31 0 -28 7 -33 40 -30 9 1 26 -10 38 -24 13 -15 27 -22 37 -18 11 4 31 -10 62 -41 30 -31 51 -45 62 -41 11 3 26 -4 40 -20 13 -16 28 -24 39 -21 11 4 31 -9 60 -40 29 -29 49 -43 60 -40 11 4 32 -10 60 -39 27 -29 48 -42 58 -38 10 4 48 -27 117 -97 57 -58 110 -104 122 -104 33 -2 78 -36 105 -78 15 -24 35 -41 54 -46 21 -6 32 -16 37 -36 5 -16 18 -35 29 -43 14 -10 20 -22 17 -34 -4 -14 18 -42 80 -104 57 -56 84 -89 80 -99 -4 -10 10 -32 40 -60 30 -29 44 -50 40 -60 -4 -11 15 -36 58 -78 47 -45 65 -69 65 -88 0 -14 8 -30 20 -38 12 -7 20 -23 20 -40 0 -16 8 -32 20 -40 12 -7 20 -23 20 -38 0 -16 11 -35 30 -50 25 -22 53 -85 49 -111 -4 -21 3 -32 21 -38 15 -5 20 -15 20 -41 0 -19 4 -34 10 -34 14 0 33 -79 26 -112 -4 -22 0 -33 19 -50 15 -13 25 -32 25 -47 0 -15 8 -31 20 -39 15 -9 20 -23 20 -60 0 -37 5 -50 20 -60 19 -11 21 -22 19 -98 -2 -76 -1 -86 19 -99 l21 -15 0 -846 c-1 -822 -1 -845 -20 -857 -14 -9 -19 -23 -19 -59 0 -37 -5 -50 -22 -63 -20 -13 -22 -23 -20 -76 3 -61 -12 -129 -29 -129 -5 0 -9 -13 -9 -30 0 -19 -7 -34 -20 -42 -12 -8 -20 -24 -20 -39 0 -15 -10 -34 -25 -47 -15 -14 -22 -27 -18 -38 4 -10 -4 -25 -21 -40 -22 -21 -25 -30 -20 -64 5 -32 3 -41 -15 -52 -13 -8 -21 -23 -21 -40 0 -17 -8 -33 -20 -40 -12 -8 -20 -24 -20 -40 0 -17 -8 -33 -20 -40 -12 -8 -20 -24 -20 -40 0 -17 -8 -33 -20 -40 -11 -7 -20 -24 -20 -38 0 -17 -15 -39 -44 -67 -32 -30 -43 -48 -39 -62 3 -13 -2 -24 -16 -33 -12 -7 -21 -23 -21 -37 0 -17 -20 -44 -65 -88 -42 -42 -62 -69 -58 -79 4 -10 -11 -31 -40 -59 -30 -29 -44 -51 -41 -62 4 -12 -16 -38 -60 -80 -47 -46 -63 -67 -59 -82 3 -13 -2 -24 -16 -33 -12 -7 -21 -23 -21 -37 0 -17 -20 -44 -64 -88 -47 -46 -63 -68 -59 -82 3 -13 -2 -24 -16 -33 -13 -8 -21 -23 -21 -40 0 -17 -8 -33 -20 -40 -12 -8 -20 -24 -20 -40 0 -17 -8 -33 -20 -40 -12 -8 -20 -24 -20 -40 0 -17 -8 -33 -20 -40 -11 -7 -20 -24 -20 -38 0 -17 -15 -39 -44 -67 -32 -30 -43 -48 -39 -62 3 -13 -2 -24 -16 -33 -13 -8 -21 -23 -21 -40 0 -17 -8 -33 -20 -40 -12 -8 -20 -24 -20 -40 0 -17 -8 -33 -20 -40 -12 -8 -20 -24 -20 -40 0 -17 -8 -33 -20 -40 -15 -10 -20 -24 -20 -60 0 -37 -5 -51 -20 -60 -12 -8 -20 -24 -20 -40 0 -17 -8 -33 -20 -40 -15 -10 -20 -24 -20 -60 0 -37 -5 -51 -20 -60 -12 -8 -20 -24 -20 -39 0 -15 -10 -34 -25 -47 -28 -25 -29 -30 -14 -69 9 -25 7 -30 -17 -50 -27 -21 -28 -22 -10 -42 18 -20 18 -21 -18 -57 -30 -30 -36 -43 -36 -80 0 -33 -5 -47 -20 -56 -15 -9 -20 -24 -20 -53 0 -49 -18 -115 -30 -115 -6 0 -10 -22 -10 -50 0 -39 -4 -53 -20 -62 -15 -10 -20 -24 -20 -60 0 -37 -5 -50 -22 -62 -20 -14 -22 -24 -20 -79 3 -56 1 -65 -22 -84 -21 -18 -24 -28 -19 -57 6 -39 -11 -70 -34 -62 -23 9 -43 -5 -43 -33 0 -39 -15 -58 -33 -42 -12 9 -15 39 -16 135 0 119 1 124 24 144 30 26 32 47 5 69 -24 20 -26 39 -6 50 12 6 15 39 17 154 l2 146 -42 40 c-22 23 -41 49 -41 60 0 29 -84 113 -113 113 -29 0 -52 24 -44 45 13 33 -15 40 -159 39 l-140 -2 -33 34 c-19 19 -31 40 -28 48 8 19 -296 322 -319 318 -10 -2 -34 14 -58 39 l-40 43 -101 -2 -100 -3 -35 37 c-23 24 -31 38 -22 41 29 11 40 33 35 72 -5 33 -2 42 16 53 13 8 21 23 21 40 0 17 8 33 20 40 12 8 20 24 20 40 0 15 8 33 19 40 11 8 21 32 25 62 6 38 16 58 42 84 19 19 34 44 34 57 0 13 8 30 19 37 11 8 21 32 25 61 6 36 17 57 46 88 25 26 36 46 33 59 -3 12 3 23 16 32 17 10 21 23 21 60 0 37 5 51 20 60 12 8 20 24 20 40 0 17 8 33 20 40 12 8 20 24 20 40 0 17 8 33 20 40 12 8 20 24 20 40 0 17 8 31 20 38 25 13 25 29 3 46 -17 11 -16 14 7 37 42 42 50 55 50 79 0 15 19 42 54 76 l54 52 56 -5 c51 -5 58 -3 78 20 20 23 27 25 80 20 53 -5 60 -3 80 20 14 16 28 23 39 20 11 -4 27 4 42 21 16 17 31 25 41 21 10 -4 25 4 40 20 15 16 30 24 40 20 11 -4 24 3 38 18 15 18 28 23 45 19 31 -8 43 21 17 41 -16 11 -17 16 -6 27 11 11 15 10 25 -3 27 -36 53 -32 100 17 30 30 51 45 61 41 11 -4 60 39 158 140 163 167 161 165 256 255 48 47 69 73 66 85 -4 12 15 38 60 80 47 46 63 67 59 82 -3 13 2 24 16 33 13 8 21 23 21 40 0 17 8 33 20 40 12 8 20 24 20 40 0 17 8 33 20 40 13 9 20 24 20 45 0 18 4 33 9 33 15 0 81 71 76 81 -8 12 14 89 25 89 6 0 10 13 10 29 0 18 8 35 19 43 11 8 21 32 25 60 4 26 14 54 22 62 8 8 14 34 14 60 0 35 5 49 20 58 15 10 20 24 20 59 0 50 17 109 31 109 5 0 9 28 9 63 0 67 13 127 30 137 19 12 13 1222 -5 1233 -20 11 -19 34 2 45 16 10 15 14 -12 62 -9 15 -15 53 -15 98 0 39 -4 72 -9 72 -15 0 -41 96 -35 129 4 19 2 31 -4 31 -13 0 -36 76 -27 89 3 5 -16 30 -41 55 -30 28 -45 50 -41 60 8 21 -99 127 -119 119 -10 -3 -25 5 -40 20 -15 16 -30 24 -40 20 -10 -4 -25 4 -40 21 -32 34 -96 32 -121 -3 -14 -20 -22 -23 -60 -17 -50 7 -70 -14 -37 -39 16 -11 17 -16 6 -27 -11 -11 -15 -10 -25 3 -22 29 -95 31 -119 3 -15 -17 -28 -22 -45 -18 -29 8 -45 -23 -20 -38 10 -5 17 -13 17 -18 0 -12 -37 -13 -42 -1 -9 23 -89 19 -113 -6 -14 -16 -29 -24 -39 -20 -10 4 -25 -4 -40 -20 -15 -16 -30 -24 -40 -20 -10 4 -31 -10 -60 -40 -29 -30 -50 -44 -60 -40 -10 4 -25 -4 -40 -20 -15 -16 -30 -24 -40 -20 -10 4 -31 -10 -60 -40 -29 -29 -50 -44 -60 -40 -10 4 -31 -10 -60 -40 -29 -29 -50 -44 -60 -40 -10 4 -31 -10 -60 -40 -29 -29 -50 -44 -60 -40 -10 4 -50 -29 -120 -100 -69 -69 -110 -103 -120 -100 -21 8 -206 -177 -199 -201 3 -12 -21 -42 -76 -96 -55 -52 -81 -86 -81 -101 0 -14 -16 -37 -40 -59 -24 -22 -40 -45 -40 -58 0 -14 -18 -40 -44 -65 -32 -30 -43 -48 -39 -62 3 -13 -2 -24 -16 -33 -13 -8 -21 -23 -21 -40 0 -17 -8 -33 -20 -40 -12 -8 -20 -24 -20 -40 0 -17 -8 -33 -20 -40 -12 -8 -20 -24 -20 -40 0 -17 -8 -33 -20 -40 -12 -8 -20 -24 -20 -40 0 -17 -8 -33 -20 -40 -12 -8 -20 -24 -20 -39 0 -15 -10 -34 -25 -47 -19 -17 -23 -28 -19 -50 7 -33 -12 -112 -26 -112 -6 0 -10 -31 -10 -70 0 -59 -3 -72 -20 -82 -17 -11 -20 -24 -20 -77 0 -99 -75 -166 -125 -111 -12 13 -25 18 -37 14 -26 -8 -48 13 -48 47 0 35 -52 89 -78 82 -12 -3 -50 29 -119 101 -72 73 -108 103 -120 100 -12 -4 -38 16 -81 60 -42 44 -67 63 -78 59 -10 -4 -31 10 -60 40 -29 30 -50 44 -60 40 -10 -4 -25 4 -40 20 -15 16 -30 24 -40 20 -10 -4 -25 4 -40 20 -15 16 -30 24 -40 20 -10 -4 -25 4 -40 20 -15 16 -30 24 -40 20 -10 -4 -25 4 -40 20 -15 16 -30 24 -40 20 -10 -4 -25 4 -40 21 -21 22 -31 25 -62 20 -31 -5 -40 -2 -59 19 -18 21 -28 24 -61 20 -33 -4 -42 -2 -56 18 -14 21 -23 23 -80 21 -56 -3 -66 0 -79 18 -23 33 -381 33 -404 0 -10 -14 -22 -20 -34 -17 -26 7 -169 -136 -162 -162 3 -12 -4 -25 -19 -35 l-23 -16 0 -405 1 -405 22 -16 c18 -12 22 -25 22 -65 0 -27 4 -49 9 -49 14 0 31 -59 31 -109 0 -35 5 -49 20 -59 15 -9 20 -23 20 -60 0 -36 5 -50 20 -60 12 -7 20 -23 20 -40 0 -16 8 -32 20 -40 12 -7 20 -23 20 -40 0 -16 8 -32 20 -40 12 -7 20 -23 20 -40 0 -17 8 -32 21 -40 14 -9 19 -20 16 -33 -4 -14 7 -32 39 -62 25 -24 44 -51 44 -63 0 -12 16 -38 35 -57 19 -19 35 -44 35 -56 0 -11 12 -31 26 -45 16 -14 24 -30 21 -39 -8 -22 418 -448 439 -440 10 4 32 -11 60 -40 29 -30 50 -44 60 -40 10 4 25 -4 40 -20 15 -16 30 -24 40 -20 10 4 31 -11 61 -41 30 -31 51 -45 62 -41 11 3 26 -4 39 -20 19 -21 28 -24 60 -19 31 5 40 2 60 -20 19 -22 28 -25 60 -20 31 5 40 2 60 -20 19 -22 28 -25 60 -20 31 5 40 2 58 -19 20 -23 27 -24 101 -21 74 3 81 2 101 -21 13 -15 28 -22 37 -19 39 15 44 -9 44 -214 -1 -190 -9 -272 -29 -272 -6 0 -10 -15 -10 -33 0 -21 -7 -36 -20 -45 -11 -7 -20 -23 -20 -37 0 -14 -8 -29 -20 -35 -12 -7 -20 -21 -20 -38 0 -19 -13 -40 -44 -69 -32 -30 -43 -48 -39 -62 3 -13 -2 -24 -16 -33 -13 -8 -21 -23 -21 -40 0 -17 -8 -33 -20 -40 -12 -8 -20 -24 -20 -40 0 -17 -8 -33 -20 -40 -12 -8 -20 -24 -20 -40 0 -17 -8 -31 -20 -38 -21 -11 -28 -40 -10 -40 26 0 8 -38 -20 -44 -25 -5 -30 -10 -30 -36 0 -19 -7 -34 -20 -42 -12 -8 -20 -24 -20 -40 0 -17 -8 -33 -20 -40 -12 -8 -20 -24 -20 -40 0 -17 -8 -33 -20 -40 -15 -10 -20 -24 -20 -60 0 -37 -5 -51 -20 -60 -12 -8 -20 -24 -20 -40 0 -17 -8 -33 -20 -40 -15 -10 -20 -24 -21 -58 -1 -93 -15 -142 -48 -172 -29 -26 -31 -32 -31 -93 0 -56 -3 -68 -24 -86 -20 -17 -23 -27 -18 -65 3 -27 1 -44 -6 -44 -24 0 -41 -30 -35 -65 5 -30 1 -40 -28 -70 -57 -58 -99 -43 -99 35 0 34 -5 48 -20 58 -15 9 -20 23 -20 60 0 37 -4 50 -21 60 -18 11 -21 20 -16 54 4 33 1 43 -19 61 -14 12 -24 32 -24 46 0 15 -8 31 -20 39 -15 9 -20 23 -20 60 0 36 -5 50 -20 60 -15 9 -20 23 -20 60 0 37 -4 50 -21 60 -18 11 -21 20 -16 54 4 33 1 43 -19 61 -14 12 -24 28 -23 37 3 30 -1 39 -21 45 -15 5 -20 15 -20 41 0 19 -4 34 -9 34 -12 0 -31 55 -31 89 0 15 -8 31 -20 39 -12 7 -20 23 -20 40 0 16 -8 32 -20 40 -12 7 -20 23 -20 40 0 16 -8 32 -20 40 -13 8 -20 23 -20 41 0 21 -6 32 -20 36 -14 5 -20 15 -20 38 0 21 -7 36 -20 45 -12 7 -20 23 -20 40 0 16 -8 32 -20 40 -12 7 -20 23 -20 40 0 16 -8 32 -20 40 -12 7 -20 23 -20 40 0 16 -8 32 -20 40 -12 7 -20 23 -20 40 0 17 -8 32 -21 40 -14 9 -19 20 -16 33 4 14 -7 32 -39 62 -29 28 -44 50 -44 67 0 14 -9 31 -20 38 -11 7 -20 23 -20 37 0 29 -54 85 -81 85 -12 0 -19 7 -19 20 0 11 5 20 10 20 21 0 8 25 -31 58 -28 24 -39 41 -36 54 4 13 -9 32 -40 63 -30 28 -44 49 -40 59 4 10 -10 31 -40 60 -29 29 -44 50 -40 60 4 10 -10 31 -40 60 -30 29 -44 50 -40 60 4 10 -9 31 -38 58 -30 29 -45 51 -45 68 0 15 -9 31 -21 38 -14 9 -19 20 -16 33 4 14 -7 32 -39 62 -29 28 -44 50 -44 67 0 14 -9 31 -20 38 -12 7 -20 23 -20 40 0 16 -8 32 -20 40 -12 7 -20 23 -20 40 0 16 -8 32 -20 40 -12 7 -20 23 -20 38 0 14 -6 32 -14 40 -8 8 -18 36 -22 62 -4 28 -14 52 -25 60 -11 7 -19 24 -19 38 0 14 -6 32 -14 40 -8 8 -18 36 -22 62 -4 28 -14 52 -25 60 -14 10 -19 26 -19 62 0 27 -5 50 -11 52 -13 4 -28 81 -28 151 -1 26 -5 47 -10 47 -27 0 -30 90 -30 828 0 746 0 763 19 775 17 10 20 23 20 78 0 67 15 129 31 129 5 0 9 22 9 50 0 39 4 53 20 62 15 10 20 24 20 60 0 34 5 50 19 60 11 8 21 32 25 60 4 26 14 54 22 62 8 8 14 25 14 38 0 14 12 34 26 47 14 12 23 28 20 36 -9 25 14 84 44 109 19 16 30 34 30 51 0 38 24 89 54 112 15 12 26 31 26 44 0 15 17 40 45 67 29 27 42 48 38 58 -4 10 10 31 40 59 29 29 44 51 41 62 -3 13 21 43 80 100 58 57 83 88 80 100 -6 24 339 368 361 360 9 -4 45 25 99 80 57 57 90 84 100 80 10 -4 31 10 58 38 28 29 49 43 59 40 11 -4 33 11 62 41 30 30 51 45 61 41 10 -4 25 4 40 20 15 16 30 24 40 20 10 -4 25 4 40 20 15 16 30 24 40 20 10 -4 25 4 40 20 15 16 30 24 40 20 11 -4 24 3 38 18 14 16 28 23 39 20 12 -4 26 3 41 20 20 23 28 26 60 21 32 -5 41 -2 60 20 20 22 29 25 60 20 32 -5 41 -2 60 19 14 16 28 23 39 20 12 -4 26 3 41 20 20 23 27 25 80 20 53 -5 60 -3 79 20 21 23 27 24 102 21 73 -3 81 -2 100 20 18 22 26 23 100 20 73 -3 81 -2 100 20 l20 23 422 0 422 0 21 -23z m-741 -8500 c84 -84 129 -123 139 -119 10 4 32 -12 61 -42 l46 -47 58 6 c52 6 59 5 73 -16 15 -21 22 -22 117 -20 117 4 129 -2 129 -64 0 -33 -5 -46 -22 -58 -20 -15 -21 -22 -20 -178 1 -103 -3 -167 -10 -175 -8 -10 -84 -13 -352 -13 l-341 0 -32 33 -31 33 -2 378 c-1 486 -7 477 187 282z"/> <path d="M9243 15161 c-11 -15 -38 -58 -59 -96 -22 -39 -46 -82 -54 -97 -37 -66 -349 -698 -370 -748 -12 -30 -26 -62 -31 -70 -5 -8 -14 -26 -20 -40 -9 -23 -19 -45 -64 -145 -7 -16 -22 -50 -33 -75 -11 -25 -32 -71 -46 -102 -14 -31 -26 -61 -26 -67 0 -5 -16 -40 -35 -78 -19 -37 -35 -74 -35 -82 0 -8 -8 -32 -19 -55 -91 -199 -93 -306 -8 -306 44 0 81 39 106 113 11 31 31 80 45 108 14 28 26 56 26 62 0 7 9 29 20 50 11 20 20 45 20 54 0 10 11 41 25 68 13 28 25 58 25 67 0 9 4 19 9 23 5 3 15 22 21 43 6 20 19 55 30 77 10 22 28 65 40 95 22 58 24 62 64 154 14 32 26 64 26 70 0 7 20 52 45 100 25 49 45 99 45 111 0 12 6 28 14 34 8 7 17 24 21 39 4 15 24 64 46 109 21 44 39 83 39 86 0 7 75 170 99 217 11 19 22 50 26 68 3 17 10 32 15 32 5 0 12 10 16 23 3 12 17 46 31 75 43 91 2 154 -54 83z"/> <path d="M6740 14259 c0 -20 46 -85 90 -127 9 -10 21 -24 26 -33 5 -9 39 -50 76 -90 82 -91 138 -159 138 -167 0 -4 15 -23 33 -43 50 -57 58 -68 119 -159 32 -47 80 -117 106 -156 42 -60 126 -198 184 -299 9 -17 38 -71 63 -121 61 -122 97 -152 135 -114 24 24 25 36 1 125 -33 129 -194 409 -353 615 -32 41 -62 80 -66 85 -31 40 -205 228 -290 314 -169 170 -262 230 -262 170z"/> </g> </svg>