<?xml version="1.0" standalone="no"?> <!DOCTYPE svg PUBLIC "-//W3C//DTD SVG 20010904//EN" "http://www.w3.org/TR/2001/REC-SVG-20010904/DTD/svg10.dtd"> <svg version="1.0" xmlns="http://www.w3.org/2000/svg" width="800.000000pt" height="1200.000000pt" viewBox="0 0 800.000000 1200.000000" preserveAspectRatio="xMidYMid meet"> <g transform="translate(0.000000,1200.000000) scale(0.100000,-0.100000)" fill="#000000" stroke="none"> <path d="M3770 9539 c-19 -5 -55 -11 -80 -14 -104 -11 -285 -56 -365 -91 -16 -7 -42 -16 -58 -19 -15 -4 -30 -11 -33 -16 -3 -5 -14 -9 -25 -9 -10 0 -19 -4 -19 -10 0 -5 -6 -10 -12 -10 -7 0 -33 -11 -58 -24 -25 -14 -73 -38 -106 -55 -34 -17 -67 -38 -74 -46 -7 -8 -18 -15 -25 -15 -8 0 -23 -12 -34 -26 -11 -14 -25 -23 -31 -19 -5 3 -22 -7 -36 -24 -14 -17 -31 -31 -38 -31 -6 0 -36 -25 -66 -55 -30 -30 -59 -55 -64 -55 -13 0 -136 -122 -136 -135 0 -6 -23 -33 -50 -60 -27 -27 -50 -54 -50 -61 0 -6 -9 -19 -20 -29 -11 -10 -20 -23 -20 -30 0 -6 -11 -22 -25 -35 -14 -13 -25 -29 -25 -36 0 -6 -6 -17 -14 -23 -14 -12 -22 -25 -84 -146 -55 -108 -80 -168 -123 -295 -51 -154 -53 -161 -84 -337 -22 -125 -24 -170 -24 -370 1 -125 4 -232 8 -238 3 -5 7 -35 8 -65 2 -60 11 -106 55 -285 16 -66 33 -124 39 -129 5 -6 9 -19 9 -30 0 -12 7 -30 15 -40 8 -11 15 -27 15 -36 0 -8 8 -31 19 -50 10 -19 22 -50 25 -67 4 -18 12 -35 17 -38 4 -3 16 -23 26 -43 10 -20 30 -56 45 -78 15 -23 28 -45 28 -49 0 -3 16 -27 35 -52 19 -25 35 -51 35 -58 0 -6 9 -20 20 -30 11 -10 20 -23 20 -30 0 -6 13 -24 30 -40 16 -16 30 -33 30 -38 0 -6 20 -33 45 -62 24 -29 56 -72 69 -96 54 -98 206 -404 206 -416 0 -7 9 -27 20 -45 11 -18 20 -43 20 -55 0 -12 5 -25 10 -28 6 -3 10 -17 10 -30 0 -13 5 -27 10 -30 6 -3 10 -16 10 -28 0 -12 7 -30 15 -41 8 -10 17 -38 21 -62 3 -25 10 -47 15 -50 5 -3 9 -15 9 -27 0 -12 12 -67 26 -122 14 -55 38 -179 54 -275 44 -267 52 -303 66 -325 8 -11 14 -28 14 -37 0 -10 6 -28 12 -41 20 -34 141 -157 156 -157 7 0 15 -7 19 -15 3 -10 -8 -29 -31 -51 -55 -53 -69 -88 -64 -156 4 -50 9 -63 38 -93 19 -19 53 -45 77 -56 24 -11 43 -26 43 -33 0 -7 -9 -21 -20 -31 -11 -10 -20 -24 -20 -32 0 -7 -4 -13 -9 -13 -4 0 -8 -30 -7 -67 1 -57 6 -75 30 -111 29 -43 71 -69 129 -81 l32 -7 -3 -89 c-4 -81 -2 -92 17 -109 12 -11 21 -24 21 -30 1 -15 46 -66 59 -66 6 0 26 -9 46 -20 34 -19 53 -20 386 -19 330 1 352 2 370 20 10 10 27 19 37 19 19 0 72 49 72 66 0 6 9 19 21 30 19 17 20 28 17 109 l-3 90 37 3 c20 2 42 10 48 18 7 8 18 14 26 14 7 0 27 21 45 47 42 61 48 121 20 185 -12 26 -26 50 -31 53 -21 13 -8 35 33 54 23 11 57 35 76 55 27 28 35 45 39 85 2 27 2 60 -1 73 -4 13 -23 43 -43 66 -35 41 -36 43 -19 68 9 14 26 29 38 34 29 11 90 75 115 121 53 96 61 121 84 269 35 227 112 584 130 605 4 5 8 16 8 25 0 21 37 145 56 188 8 18 14 42 14 52 0 11 5 20 11 20 6 0 8 9 4 20 -4 12 -2 20 5 20 6 0 13 8 16 18 15 45 165 340 178 352 9 7 16 18 16 25 0 6 9 20 20 30 11 10 20 22 20 28 0 5 14 26 30 47 17 21 30 41 30 45 0 3 14 18 30 32 17 13 30 30 30 37 0 7 9 21 20 31 11 10 20 23 20 30 0 7 9 20 20 30 11 10 20 23 20 30 0 7 9 20 20 30 11 10 20 24 20 30 0 7 6 18 14 24 17 14 146 270 146 289 0 7 9 34 21 60 35 78 37 84 60 182 12 52 25 100 29 105 4 6 10 33 13 60 3 28 11 84 17 125 15 92 7 643 -9 710 -6 25 -23 95 -37 155 -14 61 -32 120 -40 133 -8 12 -12 27 -9 32 3 6 3 16 -2 23 -13 19 -33 80 -33 100 0 9 -4 17 -10 17 -5 0 -10 4 -10 10 0 8 -66 155 -91 202 -5 10 -9 24 -9 32 0 8 -7 16 -15 20 -8 3 -15 12 -15 19 0 8 -9 22 -20 32 -11 10 -20 23 -20 30 0 7 -9 20 -20 30 -11 10 -20 23 -20 30 0 6 -13 24 -30 40 -16 16 -30 34 -30 40 0 6 -18 29 -40 50 -22 21 -40 44 -40 50 0 13 -153 165 -167 165 -5 0 -31 23 -58 50 -27 28 -55 50 -61 50 -7 0 -24 14 -38 31 -14 17 -31 27 -37 24 -6 -4 -17 3 -26 15 -8 11 -25 26 -37 31 -11 5 -34 18 -51 29 -16 10 -58 33 -92 50 -34 17 -65 35 -68 40 -3 6 -17 10 -30 10 -13 0 -26 4 -30 9 -7 13 -64 41 -81 41 -7 0 -29 9 -49 20 -20 11 -42 20 -50 20 -9 0 -23 4 -33 9 -22 13 -138 42 -177 45 -16 2 -50 8 -75 14 -83 20 -226 32 -381 31 -85 -1 -170 -5 -189 -10z m455 -79 c116 -15 170 -25 260 -49 87 -22 181 -54 192 -64 3 -4 13 -7 20 -7 14 0 212 -94 268 -127 74 -44 184 -119 235 -160 151 -122 348 -339 435 -482 6 -9 17 -27 26 -41 33 -50 96 -177 128 -255 17 -44 36 -89 40 -100 40 -97 88 -313 116 -513 17 -128 20 -336 5 -464 -19 -162 -71 -401 -101 -460 -5 -10 -9 -27 -9 -37 0 -11 -4 -22 -9 -25 -5 -3 -12 -18 -16 -33 -12 -52 -138 -297 -196 -383 -31 -47 -93 -134 -138 -195 -115 -156 -112 -152 -159 -234 -40 -70 -135 -261 -152 -306 -5 -11 -22 -56 -39 -100 -16 -44 -39 -114 -51 -155 -11 -41 -25 -83 -30 -92 -6 -10 -10 -27 -10 -37 0 -11 -4 -30 -9 -43 -5 -13 -13 -45 -19 -73 -6 -27 -20 -90 -31 -140 -22 -99 -51 -266 -57 -333 -2 -24 -9 -52 -14 -62 -6 -10 -10 -34 -10 -52 -1 -43 -45 -128 -95 -179 -77 -79 -21 -74 -770 -77 -587 -2 -676 0 -720 14 -59 18 -89 43 -135 109 -42 61 -60 110 -71 198 -22 163 -29 211 -59 352 -16 83 -37 175 -46 205 -8 30 -20 73 -26 95 -5 22 -14 48 -19 57 -5 10 -9 28 -9 41 0 13 -4 27 -9 32 -5 6 -16 35 -26 65 -15 48 -46 129 -74 195 -35 82 -48 110 -86 185 -73 147 -107 202 -229 370 -42 58 -92 128 -110 155 -91 136 -171 288 -222 422 -14 38 -30 76 -35 85 -5 10 -9 27 -9 38 0 11 -4 28 -10 38 -16 29 -49 180 -66 307 -10 72 -18 204 -19 330 -3 194 -1 222 25 359 16 82 33 160 39 173 6 13 11 37 11 53 0 16 5 32 10 35 6 3 10 14 10 24 0 9 22 71 49 137 48 117 96 213 133 266 10 14 18 30 18 36 0 5 7 16 16 23 9 7 20 22 25 34 20 43 102 146 204 254 128 136 313 282 457 359 31 17 65 36 75 41 81 46 331 135 451 160 28 6 73 16 100 21 112 25 390 30 547 10z m483 -5433 c24 -11 52 -65 52 -99 0 -25 -27 -66 -54 -80 -15 -9 -209 -12 -711 -13 -399 -1 -698 2 -708 7 -23 12 -57 67 -57 94 0 32 27 79 52 92 17 9 197 13 683 15 363 1 674 1 690 -1 17 -2 40 -9 53 -15z m-99 -348 c27 -26 41 -60 41 -104 0 -24 -9 -42 -31 -64 l-31 -31 -600 2 -600 3 -23 29 c-13 16 -25 40 -28 54 -7 36 11 83 42 109 l26 23 591 0 c585 0 590 0 613 -21z m-154 -330 c6 -6 10 -35 9 -66 0 -53 -2 -58 -42 -94 -27 -23 -57 -40 -81 -44 -21 -3 -184 -7 -362 -8 -297 -1 -327 0 -359 17 -77 41 -115 117 -88 174 l13 27 425 5 c234 3 436 4 450 2 14 -2 30 -8 35 -13z"/> <path d="M3761 9289 c-149 -23 -239 -44 -306 -69 -11 -5 -47 -18 -80 -29 -88 -32 -261 -118 -330 -165 -158 -107 -326 -266 -438 -416 -64 -86 -148 -222 -181 -295 -78 -171 -129 -320 -142 -414 -2 -19 -8 -39 -12 -45 -24 -37 -35 -544 -15 -691 22 -159 54 -280 108 -415 86 -211 175 -364 376 -645 28 -38 55 -79 60 -90 5 -11 22 -42 39 -70 29 -49 119 -229 156 -310 31 -71 84 -210 84 -221 0 -6 9 -33 19 -60 43 -111 92 -297 121 -459 5 -27 13 -70 19 -95 9 -44 38 -224 47 -297 6 -46 30 -89 65 -116 31 -22 113 -35 123 -18 4 6 2 19 -3 29 -12 22 -30 228 -31 352 -2 98 14 273 30 345 6 28 15 68 20 90 18 81 28 120 33 135 3 8 20 56 38 105 51 143 131 307 297 605 14 25 30 52 35 62 8 12 3 56 -18 160 -15 78 -34 154 -41 168 -11 23 -25 28 -134 49 -162 31 -255 67 -375 145 -92 61 -214 189 -272 286 -115 194 -157 342 -166 595 l-6 147 37 -5 c135 -21 312 -78 422 -135 136 -70 162 -86 237 -149 172 -143 295 -344 325 -533 15 -94 21 -277 10 -309 -8 -24 -7 -41 9 -83 10 -29 22 -75 25 -103 8 -60 20 -95 33 -95 5 0 13 10 17 23 4 12 42 95 85 185 62 127 78 169 73 190 -4 15 -10 32 -14 37 -13 18 -79 181 -99 242 -32 100 -44 214 -38 347 11 205 58 345 176 520 49 72 133 170 181 212 14 12 39 34 55 48 104 92 245 182 402 257 56 27 106 49 111 49 4 0 27 9 50 20 22 11 52 20 66 20 21 0 26 -7 36 -47 6 -27 14 -64 16 -83 3 -19 9 -44 14 -55 32 -79 43 -536 16 -685 -29 -163 -59 -257 -123 -386 -106 -215 -283 -390 -480 -478 -72 -31 -161 -56 -201 -56 -43 0 -78 -21 -91 -55 -7 -16 -22 -49 -32 -72 -10 -24 -19 -45 -19 -49 0 -9 -52 -117 -202 -424 -134 -273 -157 -320 -200 -420 -33 -75 -36 -82 -66 -170 -32 -92 -45 -132 -61 -195 -5 -22 -14 -58 -19 -80 -6 -22 -16 -87 -22 -145 -18 -162 -3 -483 27 -585 l9 -30 392 -3 c310 -2 392 0 393 10 4 39 -4 135 -12 144 -5 6 -28 17 -51 24 -24 7 -56 23 -73 35 -45 34 -85 76 -85 91 0 9 11 14 28 14 30 0 101 -23 132 -42 34 -21 41 2 17 57 -33 76 -104 199 -126 219 -17 15 -26 16 -82 6 -144 -26 -242 18 -329 149 -22 33 -40 67 -40 76 0 12 14 15 73 15 77 0 150 -18 204 -50 19 -11 38 -20 44 -20 22 0 6 30 -34 63 -60 49 -98 124 -105 203 -6 75 15 209 35 230 12 12 24 6 82 -36 38 -27 81 -66 96 -86 38 -49 65 -125 65 -179 0 -52 -20 -132 -48 -194 -16 -35 -18 -50 -10 -65 16 -32 50 -66 59 -60 5 3 9 34 9 69 0 115 59 213 176 291 28 19 54 34 58 34 3 0 6 -43 6 -95 0 -71 -5 -108 -21 -150 -25 -66 -82 -126 -144 -150 -25 -9 -45 -22 -45 -28 0 -7 21 -43 45 -81 25 -38 45 -75 45 -82 0 -7 5 -24 12 -38 9 -20 14 -23 25 -15 7 6 13 19 13 29 0 24 80 111 124 134 20 11 38 17 40 15 3 -2 0 -27 -6 -54 -5 -28 -12 -59 -14 -71 -2 -11 -17 -39 -33 -62 -22 -29 -42 -45 -72 -53 l-41 -13 7 -55 c4 -30 11 -65 16 -79 5 -13 9 -53 9 -89 l0 -66 81 7 c90 7 128 27 153 81 8 17 20 74 26 126 6 52 16 110 21 130 5 20 9 50 9 67 0 17 4 41 9 54 5 13 15 57 22 98 6 41 23 116 36 165 14 50 29 108 33 130 9 41 16 64 30 100 4 11 17 52 29 90 12 39 31 93 43 120 11 28 24 59 29 70 17 44 140 293 164 334 38 64 119 183 194 286 72 98 70 95 134 205 87 149 149 287 184 405 7 28 18 59 23 70 5 11 11 36 15 55 3 19 10 58 15 85 6 28 18 129 27 226 16 165 16 187 0 350 -9 96 -21 194 -26 219 -32 161 -106 378 -169 500 -40 77 -105 182 -160 260 -25 36 -107 126 -181 201 -106 106 -163 154 -256 215 -102 67 -243 144 -320 175 -189 75 -474 130 -662 128 -59 -1 -160 -10 -222 -20z m474 -79 c3 -5 26 -10 50 -10 24 0 47 -4 50 -10 3 -5 19 -10 34 -10 41 0 303 -90 351 -120 8 -6 26 -15 40 -20 14 -6 32 -15 40 -20 8 -6 24 -15 35 -20 11 -6 34 -19 50 -30 17 -11 39 -24 50 -29 12 -5 27 -16 34 -25 7 -9 19 -16 25 -16 7 0 30 -18 51 -40 21 -22 45 -40 51 -40 7 0 43 -34 81 -76 37 -42 92 -103 121 -134 28 -31 52 -61 52 -67 0 -5 9 -18 20 -28 11 -10 20 -23 20 -30 0 -7 9 -20 20 -30 11 -10 20 -23 20 -30 0 -7 9 -20 20 -30 11 -10 20 -27 20 -38 0 -10 11 -32 25 -49 14 -16 25 -35 25 -42 0 -7 11 -35 25 -62 14 -27 25 -57 25 -66 0 -10 9 -32 20 -50 11 -18 20 -43 20 -55 0 -12 5 -25 10 -28 6 -3 10 -17 10 -30 0 -28 28 -143 41 -167 10 -19 14 -706 5 -716 -3 -3 -6 -18 -6 -33 0 -15 -4 -31 -10 -34 -5 -3 -10 -24 -10 -45 0 -21 -4 -42 -10 -45 -5 -3 -10 -19 -10 -35 0 -16 -4 -32 -10 -35 -5 -3 -10 -17 -10 -30 0 -13 -4 -26 -9 -30 -5 -3 -13 -20 -16 -38 -8 -36 -64 -159 -77 -168 -5 -3 -6 -13 -2 -22 3 -10 1 -17 -5 -17 -6 0 -16 -10 -22 -22 -5 -13 -23 -45 -39 -73 -16 -27 -33 -59 -39 -70 -5 -12 -16 -27 -25 -34 -9 -7 -16 -19 -16 -25 0 -7 -11 -23 -25 -36 -14 -13 -25 -29 -25 -35 0 -7 -9 -20 -20 -30 -11 -10 -20 -23 -20 -30 0 -6 -13 -24 -30 -40 -16 -16 -30 -34 -30 -41 0 -6 -7 -18 -16 -25 -9 -7 -20 -22 -25 -34 -14 -30 -33 -61 -49 -80 -23 -28 -29 -39 -140 -270 -21 -44 -44 -98 -51 -120 -6 -22 -20 -58 -29 -80 -29 -65 -47 -117 -55 -160 -4 -22 -13 -51 -20 -65 -8 -14 -23 -65 -35 -115 -12 -49 -25 -99 -30 -110 -9 -22 -33 -155 -35 -195 -1 -14 -4 -32 -7 -40 -12 -30 -38 -186 -40 -238 -1 -29 -8 -58 -15 -64 -7 -6 -13 -20 -13 -32 0 -30 -19 -46 -54 -46 -46 0 -66 25 -66 81 0 44 6 56 60 127 38 50 58 85 55 94 -4 9 -2 19 4 23 14 8 14 72 1 80 -6 4 -8 14 -5 24 3 11 -5 25 -25 39 -16 12 -36 22 -45 22 -23 0 -100 -36 -115 -55 -14 -17 -29 -19 -50 -5 -12 8 -2 23 56 82 63 64 74 81 93 144 17 54 21 89 18 151 -3 67 -8 86 -28 111 -39 48 -51 52 -95 31 -21 -11 -52 -28 -69 -39 -39 -24 -55 -25 -55 -1 0 11 -4 21 -8 23 -4 2 -20 28 -35 58 -49 96 -58 111 -75 117 -10 3 -29 17 -43 30 -15 14 -46 34 -70 47 -35 17 -48 19 -65 11 -32 -16 -55 -37 -65 -60 -6 -11 -17 -31 -25 -45 -12 -20 -14 -53 -11 -167 l4 -143 -49 0 c-34 0 -50 -4 -54 -15 -4 -9 -13 -14 -22 -13 -16 3 -50 -46 -51 -75 -1 -24 34 -100 54 -117 8 -7 15 -18 15 -24 0 -15 82 -96 97 -96 6 0 16 -7 23 -15 7 -8 23 -15 36 -15 12 0 26 -4 29 -10 4 -6 53 -10 115 -10 l109 0 21 -30 c28 -39 23 -74 -10 -78 -32 -5 -67 -37 -73 -68 -6 -33 39 -123 67 -134 11 -4 34 -21 49 -38 20 -20 25 -32 17 -37 -17 -10 -483 -22 -494 -13 -6 4 -33 8 -61 8 -47 0 -51 2 -65 33 -12 25 -15 80 -15 272 0 156 5 271 14 330 8 50 18 94 22 100 5 5 9 19 9 31 0 13 4 25 9 28 4 3 11 23 15 43 3 21 13 51 21 67 8 15 15 34 15 42 0 12 10 37 45 119 8 17 21 48 30 70 9 22 84 175 166 340 82 165 149 306 149 313 0 7 18 48 40 91 22 43 40 83 40 89 0 6 8 27 17 47 12 25 23 35 39 35 13 0 26 5 29 10 3 6 19 10 34 10 38 0 131 33 216 76 106 54 114 59 149 93 17 17 36 31 41 31 13 0 125 112 125 125 0 6 14 24 30 40 17 16 30 34 30 40 0 7 9 20 20 30 11 10 20 24 20 30 0 7 7 18 15 25 18 15 75 131 75 152 0 8 7 23 15 34 8 10 15 29 15 41 0 12 4 25 10 28 6 3 10 16 10 28 1 12 8 40 16 62 32 88 44 206 44 462 0 157 -4 262 -11 280 -6 15 -12 46 -14 68 -5 64 -30 167 -51 209 -10 22 -28 44 -39 50 -11 6 -22 13 -25 16 -9 9 -70 7 -70 -1 0 -5 -11 -9 -24 -9 -14 0 -28 -4 -31 -10 -3 -5 -16 -10 -28 -11 -12 0 -35 -9 -52 -20 -16 -10 -41 -23 -55 -29 -50 -21 -115 -55 -118 -62 -2 -5 -11 -8 -21 -8 -9 0 -22 -5 -28 -11 -12 -12 -46 -32 -78 -48 -12 -5 -27 -16 -34 -25 -7 -9 -19 -16 -25 -16 -7 0 -30 -18 -51 -40 -21 -22 -44 -40 -49 -40 -14 0 -206 -192 -206 -205 0 -6 -13 -24 -30 -40 -16 -16 -30 -34 -30 -40 0 -7 -9 -20 -20 -30 -11 -10 -20 -24 -20 -31 0 -7 -6 -19 -13 -26 -21 -22 -54 -98 -93 -213 -37 -110 -38 -111 -43 -318 -4 -127 -10 -207 -16 -208 -5 0 -17 19 -25 43 -8 24 -20 50 -25 58 -6 8 -14 22 -20 32 -5 9 -25 37 -42 63 -18 25 -33 48 -33 51 0 11 -174 184 -185 184 -6 0 -24 14 -40 30 -16 17 -35 30 -42 30 -7 0 -13 5 -13 10 0 6 -9 10 -19 10 -11 0 -23 5 -26 11 -4 5 -17 15 -28 20 -12 5 -35 17 -52 28 -16 10 -48 24 -70 31 -22 7 -44 16 -50 20 -5 4 -44 18 -85 30 -41 12 -83 26 -92 31 -10 5 -35 9 -55 9 -21 0 -49 6 -63 13 -29 15 -47 8 -97 -37 l-33 -30 0 -163 c0 -89 5 -184 11 -210 10 -45 43 -149 75 -238 24 -64 62 -136 99 -185 18 -25 34 -48 34 -52 2 -16 93 -128 105 -128 6 0 34 -22 61 -50 27 -27 54 -50 61 -50 6 0 18 -7 25 -16 7 -9 22 -20 34 -25 11 -5 27 -13 35 -18 36 -23 125 -61 141 -61 10 0 21 -4 24 -10 3 -5 17 -10 30 -10 13 0 26 -4 29 -9 3 -5 23 -11 43 -14 113 -16 134 -21 141 -31 17 -27 41 -147 42 -206 0 -47 -5 -73 -17 -90 -18 -25 -47 -78 -123 -225 -22 -44 -54 -102 -69 -130 -16 -27 -30 -56 -30 -63 -1 -7 -14 -41 -30 -75 -43 -90 -109 -294 -138 -422 -21 -96 -25 -144 -30 -370 -3 -143 -9 -264 -13 -268 -9 -10 -33 85 -55 218 -9 55 -24 134 -32 175 -9 41 -18 92 -20 113 -3 20 -9 40 -14 43 -5 3 -9 17 -9 32 -1 32 -23 118 -33 128 -4 4 -7 16 -7 26 0 10 -4 26 -9 36 -5 9 -22 58 -37 107 -15 50 -33 97 -40 105 -6 8 -15 31 -19 50 -4 19 -11 40 -15 45 -4 6 -11 21 -15 35 -11 38 -82 193 -105 230 -5 8 -19 35 -30 60 -11 25 -29 59 -40 75 -11 17 -23 37 -26 45 -4 8 -14 23 -22 33 -16 18 -35 50 -50 82 -6 11 -19 29 -31 39 -11 11 -21 24 -21 31 0 6 -11 22 -25 35 -14 13 -25 29 -25 37 0 7 -4 13 -9 13 -5 0 -13 10 -16 23 -4 12 -16 32 -28 44 -19 21 -31 40 -57 88 -6 11 -24 43 -40 70 -30 52 -76 144 -104 207 -23 51 -56 157 -56 177 0 9 -6 23 -13 29 -6 7 -13 23 -14 35 -3 42 -15 102 -24 122 -15 32 -25 364 -16 545 6 120 14 179 28 219 10 31 19 68 19 83 0 15 5 30 10 33 6 3 10 17 10 30 0 13 5 27 10 30 6 3 10 17 10 30 0 13 5 27 10 30 6 3 10 16 11 28 0 12 10 41 22 64 12 23 46 89 75 146 29 58 59 111 67 117 8 7 15 18 15 24 0 7 12 23 26 37 14 13 29 32 33 42 11 30 229 267 246 267 6 0 29 18 50 40 21 22 44 40 50 40 7 0 20 9 30 20 10 11 24 20 32 20 7 0 16 7 19 15 4 8 14 15 24 15 11 0 22 5 25 11 4 5 17 15 28 20 12 5 45 23 72 38 28 16 60 30 72 30 12 1 24 5 27 10 4 5 29 15 56 22 28 7 50 16 50 21 0 4 11 8 23 8 13 0 27 3 31 7 10 10 96 32 127 33 15 0 32 7 39 15 8 10 24 13 53 9 23 -3 53 -1 67 5 33 13 447 14 455 1z m-235 -2390 c0 -9 18 -51 41 -95 35 -67 40 -84 35 -119 -4 -23 -18 -65 -32 -94 -26 -53 -50 -74 -63 -54 -5 8 -7 380 -2 402 2 10 21 -26 21 -40z"/> <path d="M4627 7582 c-18 -20 -192 -360 -246 -482 -178 -398 -195 -441 -186 -477 7 -28 35 -30 58 -5 8 9 22 35 30 57 44 122 77 207 90 237 9 18 39 89 67 158 28 69 60 145 72 170 11 25 38 86 60 135 22 50 50 112 64 139 13 28 24 56 24 62 0 22 -17 24 -33 6z"/> <path d="M3370 7131 c0 -4 12 -21 28 -37 129 -137 290 -360 369 -513 25 -47 51 -92 58 -100 7 -8 21 -11 30 -7 14 5 16 14 11 39 -6 31 -47 120 -84 184 -11 18 -50 74 -88 125 -79 108 -282 318 -307 318 -9 0 -17 -4 -17 -9z"/> </g> </svg>